<svg xmlns="http://www.w3.org/2000/svg" xmlns:xlink="http://www.w3.org/1999/xlink" width="500" zoomAndPan="magnify" viewBox="0 0 375 374.999991" height="500" preserveAspectRatio="xMidYMid meet" version="1.0"><defs><clipPath id="e7d7397663"><path d="M 6.519531 106 L 163 106 L 163 337.359375 L 6.519531 337.359375 Z M 6.519531 106 " clip-rule="nonzero"/></clipPath><clipPath id="1e9781c41c"><path d="M 64 34.359375 L 333 34.359375 L 333 186 L 64 186 Z M 64 34.359375 " clip-rule="nonzero"/></clipPath><clipPath id="45e7325161"><path d="M 96 280 L 368.769531 280 L 368.769531 336 L 96 336 Z M 96 280 " clip-rule="nonzero"/></clipPath></defs><g clip-path="url(#e7d7397663)"><path fill="#03a9f4" d="M 100.523438 196.054688 C 102.0625 197.898438 104.351562 198.964844 106.742188 198.964844 C 106.910156 198.964844 107.078125 198.957031 107.25 198.945312 C 109.816406 198.785156 112.167969 197.402344 113.558594 195.234375 L 135.339844 161.296875 C 137.390625 158.105469 136.90625 154.023438 134.417969 151.378906 L 162.773438 109.085938 L 159.40625 106.832031 L 130.992188 149.214844 C 127.578125 148.117188 123.726562 149.386719 121.699219 152.546875 L 105.878906 177.191406 L 84.589844 151.722656 C 83.1875 150.042969 81.242188 149.078125 79.222656 148.867188 C 78.445312 148.609375 77.617188 148.464844 76.753906 148.464844 L 37.617188 148.464844 C 37.535156 148.464844 37.457031 148.472656 37.375 148.476562 C 35.566406 148.484375 32.460938 148.859375 28.921875 150.640625 C 23.472656 153.34375 17.597656 159.257812 13.488281 169.726562 C 9.328125 180.242188 6.535156 195.445312 6.519531 218.398438 C 6.523438 224.332031 6.710938 230.785156 7.128906 237.808594 C 7.378906 242.113281 10.953125 245.4375 15.210938 245.4375 C 15.371094 245.4375 15.53125 245.433594 15.691406 245.425781 C 20.160156 245.160156 23.570312 241.328125 23.308594 236.859375 C 22.910156 230.121094 22.730469 223.984375 22.730469 218.398438 C 22.695312 193.859375 26.273438 180.078125 29.789062 172.886719 L 29.789062 324.855469 C 29.789062 331.773438 35.398438 337.378906 42.3125 337.378906 C 49.230469 337.378906 54.839844 331.773438 54.839844 324.855469 L 54.839844 233.40625 L 59.535156 233.40625 L 59.535156 324.855469 C 59.535156 331.773438 65.140625 337.378906 72.058594 337.378906 C 78.972656 337.378906 84.582031 331.773438 84.582031 324.855469 L 84.582031 176.988281 Z M 100.523438 196.054688 " fill-opacity="1" fill-rule="nonzero"/></g><path fill="#03a9f4" d="M 79.976562 119.898438 C 79.976562 120.644531 79.941406 121.390625 79.867188 122.132812 C 79.796875 122.875 79.6875 123.613281 79.539062 124.34375 C 79.394531 125.078125 79.214844 125.800781 78.996094 126.515625 C 78.78125 127.230469 78.527344 127.929688 78.242188 128.621094 C 77.957031 129.308594 77.640625 129.984375 77.285156 130.640625 C 76.933594 131.300781 76.550781 131.941406 76.136719 132.5625 C 75.722656 133.183594 75.277344 133.78125 74.804688 134.359375 C 74.332031 134.933594 73.832031 135.488281 73.300781 136.015625 C 72.773438 136.542969 72.222656 137.042969 71.644531 137.515625 C 71.066406 137.992188 70.46875 138.433594 69.847656 138.851562 C 69.226562 139.265625 68.589844 139.648438 67.929688 140 C 67.269531 140.351562 66.597656 140.671875 65.90625 140.957031 C 65.21875 141.242188 64.515625 141.492188 63.800781 141.710938 C 63.085938 141.925781 62.363281 142.105469 61.632812 142.253906 C 60.898438 142.398438 60.164062 142.507812 59.417969 142.582031 C 58.675781 142.65625 57.933594 142.691406 57.183594 142.691406 C 56.4375 142.691406 55.695312 142.65625 54.949219 142.582031 C 54.207031 142.507812 53.46875 142.398438 52.738281 142.253906 C 52.007812 142.105469 51.28125 141.925781 50.570312 141.710938 C 49.855469 141.492188 49.152344 141.242188 48.460938 140.957031 C 47.773438 140.671875 47.097656 140.351562 46.441406 140 C 45.78125 139.648438 45.144531 139.265625 44.523438 138.851562 C 43.902344 138.433594 43.300781 137.992188 42.726562 137.515625 C 42.148438 137.042969 41.597656 136.542969 41.066406 136.015625 C 40.539062 135.488281 40.039062 134.933594 39.566406 134.359375 C 39.09375 133.78125 38.648438 133.183594 38.234375 132.5625 C 37.820312 131.941406 37.433594 131.300781 37.082031 130.640625 C 36.730469 129.984375 36.414062 129.308594 36.125 128.621094 C 35.839844 127.929688 35.589844 127.230469 35.375 126.515625 C 35.15625 125.800781 34.976562 125.078125 34.828125 124.34375 C 34.683594 123.613281 34.574219 122.875 34.5 122.132812 C 34.429688 121.390625 34.390625 120.644531 34.390625 119.898438 C 34.390625 119.152344 34.429688 118.40625 34.5 117.664062 C 34.574219 116.921875 34.683594 116.183594 34.828125 115.449219 C 34.976562 114.71875 35.15625 113.996094 35.375 113.28125 C 35.589844 112.566406 35.839844 111.863281 36.125 111.175781 C 36.414062 110.484375 36.730469 109.8125 37.082031 109.152344 C 37.433594 108.496094 37.820312 107.855469 38.234375 107.234375 C 38.648438 106.613281 39.09375 106.015625 39.566406 105.4375 C 40.039062 104.859375 40.539062 104.308594 41.066406 103.78125 C 41.597656 103.253906 42.148438 102.75 42.726562 102.277344 C 43.300781 101.804688 43.902344 101.359375 44.523438 100.945312 C 45.144531 100.53125 45.78125 100.148438 46.441406 99.796875 C 47.097656 99.445312 47.773438 99.125 48.460938 98.839844 C 49.152344 98.554688 49.855469 98.300781 50.570312 98.085938 C 51.28125 97.871094 52.007812 97.6875 52.738281 97.542969 C 53.46875 97.398438 54.207031 97.289062 54.949219 97.214844 C 55.695312 97.140625 56.4375 97.105469 57.183594 97.105469 C 57.933594 97.105469 58.675781 97.140625 59.417969 97.214844 C 60.164062 97.289062 60.898438 97.398438 61.632812 97.542969 C 62.363281 97.6875 63.085938 97.871094 63.800781 98.085938 C 64.515625 98.300781 65.21875 98.554688 65.90625 98.839844 C 66.597656 99.125 67.269531 99.445312 67.929688 99.796875 C 68.589844 100.148438 69.226562 100.53125 69.847656 100.945312 C 70.46875 101.359375 71.066406 101.804688 71.644531 102.277344 C 72.222656 102.75 72.773438 103.253906 73.300781 103.78125 C 73.832031 104.308594 74.332031 104.859375 74.804688 105.4375 C 75.277344 106.015625 75.722656 106.613281 76.136719 107.234375 C 76.550781 107.855469 76.933594 108.496094 77.285156 109.152344 C 77.640625 109.8125 77.957031 110.484375 78.242188 111.175781 C 78.527344 111.863281 78.78125 112.566406 78.996094 113.28125 C 79.214844 113.996094 79.394531 114.71875 79.539062 115.449219 C 79.6875 116.183594 79.796875 116.921875 79.867188 117.664062 C 79.941406 118.40625 79.976562 119.152344 79.976562 119.898438 Z M 79.976562 119.898438 " fill-opacity="1" fill-rule="nonzero"/><g clip-path="url(#1e9781c41c)"><path fill="#03a9f4" d="M 332.289062 34.480469 L 64.847656 34.480469 L 64.847656 85.609375 L 69.914062 85.609375 L 69.914062 39.542969 L 327.222656 39.542969 L 327.222656 180.355469 L 139.410156 180.355469 L 139.410156 185.421875 L 332.289062 185.421875 Z M 332.289062 34.480469 " fill-opacity="1" fill-rule="nonzero"/></g><path fill="#03a9f4" d="M 169.878906 251.667969 C 169.878906 252.414062 169.839844 253.160156 169.769531 253.902344 C 169.695312 254.644531 169.585938 255.382812 169.441406 256.113281 C 169.292969 256.847656 169.113281 257.570312 168.898438 258.285156 C 168.679688 259 168.429688 259.699219 168.144531 260.390625 C 167.855469 261.082031 167.539062 261.753906 167.1875 262.414062 C 166.835938 263.070312 166.453125 263.710938 166.035156 264.332031 C 165.621094 264.953125 165.179688 265.550781 164.703125 266.128906 C 164.230469 266.703125 163.730469 267.257812 163.203125 267.785156 C 162.675781 268.3125 162.121094 268.8125 161.542969 269.289062 C 160.96875 269.761719 160.367188 270.207031 159.75 270.621094 C 159.128906 271.035156 158.488281 271.417969 157.828125 271.769531 C 157.171875 272.121094 156.496094 272.441406 155.808594 272.726562 C 155.117188 273.011719 154.414062 273.261719 153.703125 273.480469 C 152.988281 273.695312 152.265625 273.878906 151.53125 274.023438 C 150.800781 274.167969 150.0625 274.277344 149.320312 274.351562 C 148.574219 274.425781 147.832031 274.460938 147.085938 274.460938 C 146.339844 274.460938 145.59375 274.425781 144.851562 274.351562 C 144.109375 274.277344 143.371094 274.167969 142.636719 274.023438 C 141.90625 273.878906 141.183594 273.695312 140.46875 273.480469 C 139.753906 273.261719 139.050781 273.011719 138.363281 272.726562 C 137.671875 272.441406 137 272.121094 136.339844 271.769531 C 135.683594 271.417969 135.042969 271.035156 134.421875 270.621094 C 133.800781 270.207031 133.203125 269.761719 132.625 269.289062 C 132.046875 268.8125 131.496094 268.3125 130.96875 267.785156 C 130.441406 267.257812 129.9375 266.703125 129.464844 266.128906 C 128.992188 265.550781 128.546875 264.953125 128.132812 264.332031 C 127.71875 263.710938 127.335938 263.070312 126.984375 262.414062 C 126.632812 261.753906 126.3125 261.082031 126.027344 260.390625 C 125.742188 259.699219 125.488281 259 125.273438 258.285156 C 125.054688 257.570312 124.875 256.847656 124.730469 256.113281 C 124.582031 255.382812 124.472656 254.644531 124.402344 253.902344 C 124.328125 253.160156 124.292969 252.414062 124.292969 251.667969 C 124.292969 250.921875 124.328125 250.175781 124.402344 249.433594 C 124.472656 248.691406 124.582031 247.953125 124.730469 247.222656 C 124.875 246.488281 125.054688 245.765625 125.273438 245.050781 C 125.488281 244.335938 125.742188 243.636719 126.027344 242.945312 C 126.3125 242.253906 126.632812 241.582031 126.984375 240.921875 C 127.335938 240.265625 127.71875 239.625 128.132812 239.003906 C 128.546875 238.382812 128.992188 237.785156 129.464844 237.207031 C 129.9375 236.632812 130.441406 236.078125 130.96875 235.550781 C 131.496094 235.023438 132.046875 234.523438 132.625 234.046875 C 133.203125 233.574219 133.800781 233.132812 134.421875 232.714844 C 135.042969 232.300781 135.683594 231.917969 136.339844 231.566406 C 137 231.214844 137.671875 230.894531 138.363281 230.609375 C 139.050781 230.324219 139.753906 230.074219 140.46875 229.855469 C 141.183594 229.640625 141.90625 229.457031 142.636719 229.3125 C 143.371094 229.167969 144.109375 229.058594 144.851562 228.984375 C 145.59375 228.910156 146.339844 228.875 147.085938 228.875 C 147.832031 228.875 148.574219 228.910156 149.320312 228.984375 C 150.0625 229.058594 150.800781 229.167969 151.53125 229.3125 C 152.265625 229.457031 152.988281 229.640625 153.703125 229.855469 C 154.414062 230.074219 155.117188 230.324219 155.808594 230.609375 C 156.496094 230.894531 157.171875 231.214844 157.828125 231.566406 C 158.488281 231.917969 159.128906 232.300781 159.75 232.714844 C 160.367188 233.132812 160.96875 233.574219 161.542969 234.046875 C 162.121094 234.523438 162.675781 235.023438 163.203125 235.550781 C 163.730469 236.078125 164.230469 236.632812 164.703125 237.207031 C 165.179688 237.785156 165.621094 238.382812 166.035156 239.003906 C 166.453125 239.625 166.835938 240.265625 167.1875 240.921875 C 167.539062 241.582031 167.855469 242.253906 168.144531 242.945312 C 168.429688 243.636719 168.679688 244.335938 168.898438 245.050781 C 169.113281 245.765625 169.292969 246.488281 169.441406 247.222656 C 169.585938 247.953125 169.695312 248.691406 169.769531 249.433594 C 169.839844 250.175781 169.878906 250.921875 169.878906 251.667969 Z M 169.878906 251.667969 " fill-opacity="1" fill-rule="nonzero"/><path fill="#03a9f4" d="M 255.480469 251.667969 C 255.480469 252.414062 255.441406 253.160156 255.371094 253.902344 C 255.296875 254.644531 255.1875 255.382812 255.042969 256.113281 C 254.894531 256.847656 254.714844 257.570312 254.496094 258.285156 C 254.28125 259 254.03125 259.699219 253.746094 260.390625 C 253.457031 261.082031 253.140625 261.753906 252.789062 262.414062 C 252.4375 263.070312 252.054688 263.710938 251.636719 264.332031 C 251.222656 264.953125 250.777344 265.550781 250.304688 266.128906 C 249.832031 266.703125 249.332031 267.257812 248.804688 267.785156 C 248.277344 268.3125 247.722656 268.8125 247.144531 269.289062 C 246.570312 269.761719 245.96875 270.207031 245.347656 270.621094 C 244.730469 271.035156 244.089844 271.417969 243.429688 271.769531 C 242.773438 272.121094 242.097656 272.441406 241.410156 272.726562 C 240.71875 273.011719 240.015625 273.261719 239.300781 273.480469 C 238.589844 273.695312 237.863281 273.878906 237.132812 274.023438 C 236.402344 274.167969 235.664062 274.277344 234.921875 274.351562 C 234.175781 274.425781 233.433594 274.460938 232.6875 274.460938 C 231.941406 274.460938 231.195312 274.425781 230.453125 274.351562 C 229.710938 274.277344 228.972656 274.167969 228.238281 274.023438 C 227.507812 273.878906 226.785156 273.695312 226.070312 273.480469 C 225.355469 273.261719 224.652344 273.011719 223.964844 272.726562 C 223.273438 272.441406 222.601562 272.121094 221.941406 271.769531 C 221.28125 271.417969 220.644531 271.035156 220.023438 270.621094 C 219.402344 270.207031 218.804688 269.761719 218.226562 269.289062 C 217.648438 268.8125 217.097656 268.3125 216.570312 267.785156 C 216.042969 267.257812 215.539062 266.703125 215.066406 266.128906 C 214.59375 265.550781 214.148438 264.953125 213.734375 264.332031 C 213.320312 263.710938 212.9375 263.070312 212.585938 262.414062 C 212.230469 261.753906 211.914062 261.082031 211.628906 260.390625 C 211.34375 259.699219 211.089844 259 210.875 258.285156 C 210.65625 257.570312 210.476562 256.847656 210.332031 256.113281 C 210.183594 255.382812 210.074219 254.644531 210.003906 253.902344 C 209.929688 253.160156 209.894531 252.414062 209.894531 251.667969 C 209.894531 250.921875 209.929688 250.175781 210.003906 249.433594 C 210.074219 248.691406 210.183594 247.953125 210.332031 247.222656 C 210.476562 246.488281 210.65625 245.765625 210.875 245.050781 C 211.089844 244.335938 211.34375 243.636719 211.628906 242.945312 C 211.914062 242.253906 212.230469 241.582031 212.585938 240.921875 C 212.9375 240.265625 213.320312 239.625 213.734375 239.003906 C 214.148438 238.382812 214.59375 237.785156 215.066406 237.207031 C 215.539062 236.632812 216.042969 236.078125 216.570312 235.550781 C 217.097656 235.023438 217.648438 234.523438 218.226562 234.046875 C 218.804688 233.574219 219.402344 233.132812 220.023438 232.714844 C 220.644531 232.300781 221.28125 231.917969 221.941406 231.566406 C 222.601562 231.214844 223.273438 230.894531 223.964844 230.609375 C 224.652344 230.324219 225.355469 230.074219 226.070312 229.855469 C 226.785156 229.640625 227.507812 229.457031 228.238281 229.3125 C 228.972656 229.167969 229.710938 229.058594 230.453125 228.984375 C 231.195312 228.910156 231.941406 228.875 232.6875 228.875 C 233.433594 228.875 234.175781 228.910156 234.921875 228.984375 C 235.664062 229.058594 236.402344 229.167969 237.132812 229.3125 C 237.863281 229.457031 238.589844 229.640625 239.300781 229.855469 C 240.015625 230.074219 240.71875 230.324219 241.410156 230.609375 C 242.097656 230.894531 242.773438 231.214844 243.429688 231.566406 C 244.089844 231.917969 244.730469 232.300781 245.347656 232.714844 C 245.96875 233.132812 246.570312 233.574219 247.144531 234.046875 C 247.722656 234.523438 248.277344 235.023438 248.804688 235.550781 C 249.332031 236.078125 249.832031 236.632812 250.304688 237.207031 C 250.777344 237.785156 251.222656 238.382812 251.636719 239.003906 C 252.054688 239.625 252.4375 240.265625 252.789062 240.921875 C 253.140625 241.582031 253.457031 242.253906 253.746094 242.945312 C 254.03125 243.636719 254.28125 244.335938 254.496094 245.050781 C 254.714844 245.765625 254.894531 246.488281 255.042969 247.222656 C 255.1875 247.953125 255.296875 248.691406 255.371094 249.433594 C 255.441406 250.175781 255.480469 250.921875 255.480469 251.667969 Z M 255.480469 251.667969 " fill-opacity="1" fill-rule="nonzero"/><g clip-path="url(#45e7325161)"><path fill="#03a9f4" d="M 119.6875 304.664062 L 119.6875 335.386719 L 174.484375 335.386719 L 174.484375 304.710938 C 175.085938 305.941406 175.691406 307.355469 176.289062 309.003906 C 178.375 314.792969 180.21875 323.308594 181.054688 335.386719 L 198.703125 335.386719 C 199.78125 319.847656 202.554688 310.257812 205.289062 304.664062 L 205.289062 335.386719 L 260.085938 335.386719 L 260.085938 304.710938 C 260.6875 305.941406 261.292969 307.355469 261.890625 309.003906 C 263.976562 314.792969 265.820312 323.308594 266.65625 335.386719 L 284.304688 335.386719 C 285.382812 319.847656 288.15625 310.257812 290.890625 304.664062 L 290.890625 335.386719 L 345.6875 335.386719 L 345.6875 304.710938 C 346.289062 305.941406 346.894531 307.355469 347.492188 309.003906 C 349.578125 314.792969 351.421875 323.308594 352.257812 335.386719 L 368.496094 335.386719 C 367.144531 313.90625 362.859375 300.898438 357.363281 292.496094 C 354.035156 287.449219 350.140625 284.207031 346.542969 282.414062 C 343.082031 280.667969 340.039062 280.273438 338.214844 280.25 C 338.09375 280.246094 337.976562 280.230469 337.855469 280.230469 L 298.71875 280.230469 C 298.582031 280.230469 298.449219 280.246094 298.316406 280.25 C 296.484375 280.277344 293.464844 280.679688 290.027344 282.414062 C 284.953125 284.925781 279.519531 290.222656 275.476562 299.382812 C 274.324219 296.789062 273.078125 294.507812 271.761719 292.496094 C 268.433594 287.445312 264.539062 284.207031 260.941406 282.414062 C 257.480469 280.664062 254.4375 280.273438 252.609375 280.25 C 252.492188 280.246094 252.375 280.230469 252.253906 280.230469 L 213.117188 280.230469 C 212.980469 280.230469 212.847656 280.246094 212.714844 280.25 C 210.882812 280.277344 207.859375 280.675781 204.425781 282.410156 C 199.351562 284.925781 193.917969 290.21875 189.875 299.382812 C 188.71875 296.789062 187.472656 294.507812 186.15625 292.496094 C 182.828125 287.445312 178.9375 284.207031 175.339844 282.410156 C 171.878906 280.664062 168.835938 280.273438 167.007812 280.246094 C 166.890625 280.242188 166.773438 280.230469 166.652344 280.230469 L 127.511719 280.230469 C 127.375 280.230469 127.242188 280.242188 127.109375 280.25 C 125.28125 280.277344 122.257812 280.675781 118.820312 282.410156 C 113.371094 285.109375 107.496094 291.019531 103.386719 301.496094 C 100.195312 309.566406 97.8125 320.410156 96.867188 335.382812 L 113.097656 335.382812 C 114.179688 319.847656 116.953125 310.261719 119.6875 304.664062 Z M 119.6875 304.664062 " fill-opacity="1" fill-rule="nonzero"/></g><path fill="#03a9f4" d="M 341.082031 251.667969 C 341.082031 252.414062 341.042969 253.160156 340.972656 253.902344 C 340.898438 254.644531 340.789062 255.382812 340.644531 256.113281 C 340.496094 256.847656 340.316406 257.570312 340.097656 258.285156 C 339.882812 259 339.632812 259.699219 339.347656 260.390625 C 339.058594 261.082031 338.742188 261.753906 338.390625 262.414062 C 338.039062 263.070312 337.652344 263.710938 337.238281 264.332031 C 336.824219 264.953125 336.378906 265.550781 335.90625 266.128906 C 335.433594 266.703125 334.933594 267.257812 334.40625 267.785156 C 333.878906 268.3125 333.324219 268.8125 332.746094 269.289062 C 332.171875 269.761719 331.570312 270.207031 330.949219 270.621094 C 330.332031 271.035156 329.691406 271.417969 329.03125 271.769531 C 328.375 272.121094 327.699219 272.441406 327.011719 272.726562 C 326.320312 273.011719 325.617188 273.261719 324.902344 273.480469 C 324.191406 273.695312 323.464844 273.878906 322.734375 274.023438 C 322.003906 274.167969 321.265625 274.277344 320.523438 274.351562 C 319.777344 274.425781 319.035156 274.460938 318.289062 274.460938 C 317.542969 274.460938 316.796875 274.425781 316.054688 274.351562 C 315.308594 274.277344 314.574219 274.167969 313.839844 274.023438 C 313.109375 273.878906 312.386719 273.695312 311.671875 273.480469 C 310.957031 273.261719 310.253906 273.011719 309.566406 272.726562 C 308.875 272.441406 308.203125 272.121094 307.542969 271.769531 C 306.882812 271.417969 306.246094 271.035156 305.625 270.621094 C 305.003906 270.207031 304.40625 269.761719 303.828125 269.289062 C 303.25 268.8125 302.699219 268.3125 302.171875 267.785156 C 301.640625 267.257812 301.140625 266.703125 300.667969 266.128906 C 300.195312 265.550781 299.75 264.953125 299.335938 264.332031 C 298.921875 263.710938 298.539062 263.070312 298.1875 262.414062 C 297.832031 261.753906 297.515625 261.082031 297.230469 260.390625 C 296.945312 259.699219 296.691406 259 296.476562 258.285156 C 296.257812 257.570312 296.078125 256.847656 295.933594 256.113281 C 295.785156 255.382812 295.675781 254.644531 295.605469 253.902344 C 295.53125 253.160156 295.496094 252.414062 295.496094 251.667969 C 295.496094 250.921875 295.53125 250.175781 295.605469 249.433594 C 295.675781 248.691406 295.785156 247.953125 295.933594 247.222656 C 296.078125 246.488281 296.257812 245.765625 296.476562 245.050781 C 296.691406 244.335938 296.945312 243.636719 297.230469 242.945312 C 297.515625 242.253906 297.832031 241.582031 298.1875 240.921875 C 298.539062 240.265625 298.921875 239.625 299.335938 239.003906 C 299.75 238.382812 300.195312 237.785156 300.667969 237.207031 C 301.140625 236.632812 301.640625 236.078125 302.171875 235.550781 C 302.699219 235.023438 303.25 234.523438 303.828125 234.046875 C 304.40625 233.574219 305.003906 233.132812 305.625 232.714844 C 306.246094 232.300781 306.882812 231.917969 307.542969 231.566406 C 308.203125 231.214844 308.875 230.894531 309.566406 230.609375 C 310.253906 230.324219 310.957031 230.074219 311.671875 229.855469 C 312.386719 229.640625 313.109375 229.457031 313.839844 229.3125 C 314.574219 229.167969 315.308594 229.058594 316.054688 228.984375 C 316.796875 228.910156 317.542969 228.875 318.289062 228.875 C 319.035156 228.875 319.777344 228.910156 320.523438 228.984375 C 321.265625 229.058594 322.003906 229.167969 322.734375 229.3125 C 323.464844 229.457031 324.191406 229.640625 324.902344 229.855469 C 325.617188 230.074219 326.320312 230.324219 327.011719 230.609375 C 327.699219 230.894531 328.375 231.214844 329.03125 231.566406 C 329.691406 231.917969 330.332031 232.300781 330.949219 232.714844 C 331.570312 233.132812 332.171875 233.574219 332.746094 234.046875 C 333.324219 234.523438 333.878906 235.023438 334.40625 235.550781 C 334.933594 236.078125 335.433594 236.632812 335.90625 237.207031 C 336.378906 237.785156 336.824219 238.382812 337.238281 239.003906 C 337.652344 239.625 338.039062 240.265625 338.390625 240.921875 C 338.742188 241.582031 339.058594 242.253906 339.347656 242.945312 C 339.632812 243.636719 339.882812 244.335938 340.097656 245.050781 C 340.316406 245.765625 340.496094 246.488281 340.644531 247.222656 C 340.789062 247.953125 340.898438 248.691406 340.972656 249.433594 C 341.042969 250.175781 341.082031 250.921875 341.082031 251.667969 Z M 341.082031 251.667969 " fill-opacity="1" fill-rule="nonzero"/></svg>