<svg xmlns="http://www.w3.org/2000/svg" xmlns:xlink="http://www.w3.org/1999/xlink" width="100" zoomAndPan="magnify" viewBox="0 0 75 37.5" height="50" preserveAspectRatio="xMidYMid meet" version="1.0"><defs><g/><clipPath id="d320354814"><path d="M 10.933594 17.46875 L 26.476562 17.46875 L 26.476562 32.269531 L 10.933594 32.269531 Z M 10.933594 17.46875 " clip-rule="nonzero"/></clipPath><clipPath id="67f1b1db0d"><path d="M 46.71875 3.699219 L 59.300781 3.699219 L 59.300781 16.28125 L 46.71875 16.28125 Z M 46.71875 3.699219 " clip-rule="nonzero"/></clipPath></defs><path fill="#ffffff" d="M 18.679688 22.597656 C 17.824219 22.597656 17.128906 23.292969 17.128906 24.148438 C 17.128906 25.007812 17.824219 25.703125 18.679688 25.703125 C 19.535156 25.703125 20.234375 25.007812 20.234375 24.148438 C 20.234375 23.292969 19.535156 22.597656 18.679688 22.597656 Z M 18.679688 25.457031 C 17.960938 25.457031 17.375 24.871094 17.375 24.148438 C 17.375 23.429688 17.960938 22.84375 18.679688 22.84375 C 19.402344 22.84375 19.988281 23.429688 19.988281 24.148438 C 19.988281 24.871094 19.402344 25.457031 18.679688 25.457031 Z M 18.679688 25.457031 " fill-opacity="1" fill-rule="nonzero"/><path fill="#ffffff" d="M 18.679688 23.027344 C 18.613281 23.027344 18.558594 23.082031 18.558594 23.148438 L 18.558594 24.097656 L 18.152344 24.472656 C 18.101562 24.515625 18.101562 24.59375 18.144531 24.644531 C 18.171875 24.671875 18.203125 24.683594 18.238281 24.683594 C 18.265625 24.683594 18.296875 24.671875 18.320312 24.652344 L 18.765625 24.238281 C 18.789062 24.214844 18.804688 24.183594 18.804688 24.148438 L 18.804688 23.148438 C 18.804688 23.082031 18.75 23.027344 18.679688 23.027344 Z M 18.679688 23.027344 " fill-opacity="1" fill-rule="nonzero"/><path fill="#ffffff" d="M 13.425781 29.273438 L 12.320312 29.273438 C 12.253906 29.273438 12.199219 29.328125 12.199219 29.394531 L 12.199219 31.121094 C 12.199219 31.1875 12.253906 31.242188 12.320312 31.242188 L 13.425781 31.242188 C 13.496094 31.242188 13.550781 31.1875 13.550781 31.121094 L 13.550781 29.394531 C 13.550781 29.328125 13.496094 29.273438 13.425781 29.273438 Z M 13.304688 29.519531 L 13.304688 29.800781 L 12.445312 29.800781 L 12.445312 29.519531 Z M 12.445312 30.996094 L 12.445312 30.046875 L 13.304688 30.046875 L 13.304688 30.996094 Z M 12.445312 30.996094 " fill-opacity="1" fill-rule="nonzero"/><path fill="#ffffff" d="M 14.996094 29.273438 L 13.886719 29.273438 C 13.820312 29.273438 13.765625 29.328125 13.765625 29.394531 L 13.765625 31.121094 C 13.765625 31.1875 13.820312 31.242188 13.886719 31.242188 L 14.996094 31.242188 C 15.0625 31.242188 15.117188 31.1875 15.117188 31.121094 L 15.117188 29.394531 C 15.117188 29.328125 15.0625 29.273438 14.996094 29.273438 Z M 14.871094 29.519531 L 14.871094 29.800781 L 14.011719 29.800781 L 14.011719 29.519531 Z M 14.011719 30.996094 L 14.011719 30.046875 L 14.871094 30.046875 L 14.871094 30.996094 Z M 14.011719 30.996094 " fill-opacity="1" fill-rule="nonzero"/><path fill="#ffffff" d="M 14.535156 24.71875 L 13.425781 24.71875 C 13.359375 24.71875 13.304688 24.773438 13.304688 24.839844 L 13.304688 26.5625 C 13.304688 26.632812 13.359375 26.6875 13.425781 26.6875 L 14.535156 26.6875 C 14.601562 26.6875 14.65625 26.632812 14.65625 26.5625 L 14.65625 24.839844 C 14.65625 24.773438 14.601562 24.71875 14.535156 24.71875 Z M 14.410156 24.964844 L 14.410156 25.246094 L 13.550781 25.246094 L 13.550781 24.964844 Z M 13.550781 26.441406 L 13.550781 25.492188 L 14.410156 25.492188 L 14.410156 26.441406 Z M 13.550781 26.441406 " fill-opacity="1" fill-rule="nonzero"/><g clip-path="url(#d320354814)"><path fill="#ffffff" d="M 26.40625 23.957031 L 24.726562 21.167969 C 24.703125 21.132812 24.664062 21.109375 24.621094 21.109375 L 19.664062 21.109375 L 18.804688 20.082031 L 18.804688 19.34375 C 19.132812 19.382812 19.378906 19.566406 19.617188 19.742188 C 19.8125 19.894531 20 20.035156 20.21875 20.070312 C 20.296875 20.085938 20.378906 20.089844 20.457031 20.089844 C 20.851562 20.089844 21.175781 19.9375 21.191406 19.929688 C 21.234375 19.910156 21.261719 19.867188 21.261719 19.820312 L 21.261719 18.195312 C 21.261719 18.152344 21.242188 18.113281 21.203125 18.09375 C 21.167969 18.070312 21.125 18.066406 21.085938 18.085938 C 21.082031 18.085938 20.675781 18.277344 20.257812 18.207031 C 20.097656 18.179688 19.945312 18.0625 19.761719 17.925781 C 19.480469 17.710938 19.15625 17.46875 18.679688 17.46875 C 18.613281 17.46875 18.558594 17.523438 18.558594 17.589844 L 18.558594 20.082031 L 17.695312 21.109375 L 12.742188 21.109375 C 12.699219 21.109375 12.65625 21.132812 12.636719 21.167969 L 10.957031 23.957031 C 10.933594 23.992188 10.933594 24.039062 10.953125 24.078125 C 10.976562 24.117188 11.015625 24.140625 11.0625 24.140625 C 11.0625 24.140625 11.683594 24.144531 12.457031 24.148438 L 12.457031 27.164062 L 11.890625 27.164062 C 11.820312 27.164062 11.765625 27.21875 11.765625 27.285156 L 11.765625 31.917969 C 11.765625 31.988281 11.820312 32.042969 11.890625 32.042969 L 15.296875 32.042969 L 15.296875 32.238281 C 15.296875 32.304688 15.351562 32.359375 15.417969 32.359375 L 21.941406 32.359375 C 22.011719 32.359375 22.066406 32.304688 22.066406 32.238281 L 22.066406 32.042969 L 25.472656 32.042969 C 25.539062 32.042969 25.59375 31.988281 25.59375 31.917969 L 25.59375 27.285156 C 25.59375 27.21875 25.539062 27.160156 25.472656 27.160156 L 24.90625 27.160156 L 24.90625 24.144531 C 25.679688 24.144531 26.300781 24.140625 26.300781 24.140625 C 26.34375 24.140625 26.386719 24.117188 26.40625 24.078125 C 26.429688 24.039062 26.429688 23.992188 26.40625 23.957031 Z M 20.21875 18.449219 C 20.53125 18.503906 20.835938 18.433594 21.015625 18.375 L 21.015625 19.738281 C 20.882812 19.789062 20.574219 19.882812 20.257812 19.828125 C 20.097656 19.800781 19.945312 19.683594 19.761719 19.546875 C 19.503906 19.351562 19.214844 19.136719 18.804688 19.097656 L 18.804688 17.722656 C 19.132812 17.757812 19.378906 17.941406 19.617188 18.121094 C 19.8125 18.269531 20 18.410156 20.21875 18.449219 Z M 12.808594 21.355469 L 17.492188 21.355469 L 15.359375 23.898438 C 15.101562 23.90625 13.851562 23.902344 12.582031 23.902344 C 12.578125 23.902344 12.578125 23.902344 12.578125 23.902344 C 12.132812 23.898438 11.6875 23.898438 11.277344 23.898438 Z M 12.703125 24.148438 C 12.878906 24.148438 13.058594 24.148438 13.238281 24.148438 C 13.613281 24.148438 13.984375 24.148438 14.3125 24.148438 C 14.464844 24.148438 14.609375 24.148438 14.738281 24.148438 C 15.003906 24.148438 15.179688 24.148438 15.296875 24.144531 L 15.296875 27.160156 L 12.703125 27.160156 Z M 15.296875 27.40625 L 15.296875 28.4375 L 12.011719 28.4375 L 12.011719 27.40625 Z M 12.011719 31.796875 L 12.011719 28.683594 L 15.296875 28.683594 L 15.296875 31.796875 Z M 20.15625 28.105469 L 17.207031 28.105469 L 17.207031 27.074219 L 20.15625 27.074219 Z M 17.207031 28.351562 L 18.558594 28.351562 L 18.558594 32.113281 L 17.207031 32.113281 Z M 18.804688 32.113281 L 18.804688 28.351562 L 20.15625 28.351562 L 20.15625 32.113281 Z M 21.820312 32.113281 L 20.402344 32.113281 L 20.402344 26.953125 C 20.402344 26.886719 20.347656 26.832031 20.28125 26.832031 L 17.082031 26.832031 C 17.015625 26.832031 16.960938 26.886719 16.960938 26.953125 L 16.960938 32.113281 L 15.542969 32.113281 L 15.542969 24.0625 L 18.679688 20.316406 L 21.820312 24.0625 Z M 22.066406 31.796875 L 22.066406 28.683594 L 25.347656 28.683594 L 25.347656 31.796875 Z M 25.347656 28.4375 L 22.066406 28.4375 L 22.066406 27.40625 L 25.347656 27.40625 Z M 24.660156 27.160156 L 22.066406 27.160156 L 22.066406 24.144531 C 22.183594 24.148438 22.359375 24.148438 22.625 24.148438 C 22.753906 24.148438 22.894531 24.148438 23.046875 24.148438 C 23.378906 24.148438 23.75 24.148438 24.121094 24.148438 C 24.304688 24.148438 24.484375 24.148438 24.660156 24.148438 Z M 24.78125 23.902344 C 23.511719 23.902344 22.261719 23.90625 22.003906 23.898438 L 19.871094 21.355469 L 24.550781 21.355469 L 26.082031 23.898438 C 25.675781 23.898438 25.226562 23.898438 24.78125 23.902344 Z M 24.78125 23.902344 " fill-opacity="1" fill-rule="nonzero"/></g><path fill="#ffffff" d="M 25.039062 29.273438 L 23.933594 29.273438 C 23.867188 29.273438 23.8125 29.328125 23.8125 29.394531 L 23.8125 31.121094 C 23.8125 31.1875 23.867188 31.242188 23.933594 31.242188 L 25.039062 31.242188 C 25.109375 31.242188 25.164062 31.1875 25.164062 31.121094 L 25.164062 29.394531 C 25.164062 29.328125 25.109375 29.273438 25.039062 29.273438 Z M 24.917969 29.519531 L 24.917969 29.800781 L 24.058594 29.800781 L 24.058594 29.519531 Z M 24.058594 30.996094 L 24.058594 30.046875 L 24.917969 30.046875 L 24.917969 30.996094 Z M 24.058594 30.996094 " fill-opacity="1" fill-rule="nonzero"/><path fill="#ffffff" d="M 23.472656 29.273438 L 22.367188 29.273438 C 22.300781 29.273438 22.246094 29.328125 22.246094 29.394531 L 22.246094 31.121094 C 22.246094 31.1875 22.300781 31.242188 22.367188 31.242188 L 23.472656 31.242188 C 23.542969 31.242188 23.597656 31.1875 23.597656 31.121094 L 23.597656 29.394531 C 23.597656 29.328125 23.542969 29.273438 23.472656 29.273438 Z M 23.351562 29.519531 L 23.351562 29.800781 L 22.492188 29.800781 L 22.492188 29.519531 Z M 22.492188 30.996094 L 22.492188 30.046875 L 23.351562 30.046875 L 23.351562 30.996094 Z M 22.492188 30.996094 " fill-opacity="1" fill-rule="nonzero"/><path fill="#ffffff" d="M 23.933594 24.71875 L 22.828125 24.71875 C 22.761719 24.71875 22.707031 24.773438 22.707031 24.839844 L 22.707031 26.5625 C 22.707031 26.632812 22.761719 26.6875 22.828125 26.6875 L 23.933594 26.6875 C 24.003906 26.6875 24.058594 26.632812 24.058594 26.5625 L 24.058594 24.839844 C 24.058594 24.773438 24.003906 24.71875 23.933594 24.71875 Z M 23.8125 24.964844 L 23.8125 25.246094 L 22.953125 25.246094 L 22.953125 24.964844 Z M 22.953125 26.441406 L 22.953125 25.492188 L 23.8125 25.492188 L 23.8125 26.441406 Z M 22.953125 26.441406 " fill-opacity="1" fill-rule="nonzero"/><g clip-path="url(#67f1b1db0d)"><path fill="#ffffff" d="M 59.515625 6.921875 L 58.515625 6.398438 C 58.394531 6.332031 58.300781 6.363281 58.238281 6.484375 L 56.871094 9.09375 L 56.871094 6.964844 C 56.871094 6.949219 56.867188 6.929688 56.863281 6.914062 C 56.859375 6.90625 56.859375 6.898438 56.855469 6.890625 C 56.847656 6.863281 56.832031 6.839844 56.8125 6.820312 L 53.898438 3.777344 C 53.855469 3.726562 53.804688 3.699219 53.738281 3.699219 L 46.9375 3.699219 C 46.800781 3.699219 46.730469 3.769531 46.730469 3.910156 L 46.730469 15.949219 C 46.730469 16.085938 46.800781 16.15625 46.9375 16.15625 L 56.664062 16.15625 C 56.804688 16.15625 56.871094 16.085938 56.871094 15.949219 L 56.871094 12.4375 C 56.871094 12.429688 56.871094 12.425781 56.871094 12.421875 L 59.234375 7.910156 L 59.605469 7.199219 C 59.667969 7.078125 59.640625 6.984375 59.515625 6.921875 Z M 53.945312 4.421875 L 56.179688 6.757812 L 53.945312 6.757812 Z M 56.457031 15.742188 L 47.148438 15.742188 L 47.148438 4.113281 L 53.53125 4.113281 L 53.53125 6.964844 C 53.53125 7.101562 53.597656 7.171875 53.738281 7.171875 L 56.457031 7.171875 L 56.457031 9.886719 L 55.425781 11.898438 L 55.425781 11.902344 L 55.347656 13.265625 C 55.34375 13.355469 55.378906 13.421875 55.460938 13.460938 C 55.542969 13.503906 55.621094 13.492188 55.6875 13.433594 L 56.457031 12.832031 Z M 55.816406 12.246094 L 56.25 12.46875 L 55.785156 12.832031 Z M 56.542969 12.15625 L 56.246094 12.003906 L 55.90625 11.824219 L 56.855469 10.019531 C 56.855469 10.015625 56.855469 10.015625 56.855469 10.015625 L 58.136719 7.566406 L 58.769531 7.898438 Z M 58.964844 7.535156 L 58.328125 7.203125 L 58.507812 6.859375 L 59.144531 7.191406 Z M 54.058594 11.273438 C 54.058594 11.410156 53.988281 11.480469 53.847656 11.480469 L 50.566406 11.480469 C 50.429688 11.480469 50.359375 11.410156 50.359375 11.273438 C 50.359375 11.136719 50.429688 11.066406 50.566406 11.066406 L 53.847656 11.066406 C 53.988281 11.066406 54.058594 11.136719 54.058594 11.273438 Z M 49.414062 12.605469 L 48.335938 12.605469 C 48.199219 12.605469 48.128906 12.675781 48.128906 12.8125 L 48.128906 13.863281 C 48.128906 14.003906 48.199219 14.070312 48.335938 14.070312 L 49.414062 14.070312 C 49.550781 14.070312 49.621094 14.003906 49.621094 13.863281 L 49.621094 12.8125 C 49.621094 12.675781 49.550781 12.605469 49.414062 12.605469 Z M 49.207031 13.65625 L 48.542969 13.65625 L 48.542969 13.019531 L 49.207031 13.019531 Z M 54.058594 13.386719 C 54.058594 13.523438 53.988281 13.59375 53.847656 13.59375 L 50.566406 13.59375 C 50.429688 13.59375 50.359375 13.523438 50.359375 13.386719 C 50.359375 13.246094 50.429688 13.175781 50.566406 13.175781 L 53.847656 13.175781 C 53.988281 13.175781 54.054688 13.246094 54.058594 13.382812 Z M 49.414062 10.503906 L 48.335938 10.503906 C 48.199219 10.503906 48.128906 10.574219 48.128906 10.710938 L 48.128906 11.761719 C 48.128906 11.902344 48.199219 11.972656 48.335938 11.972656 L 49.414062 11.972656 C 49.550781 11.972656 49.621094 11.902344 49.621094 11.761719 L 49.621094 10.710938 C 49.621094 10.574219 49.550781 10.503906 49.414062 10.503906 Z M 49.207031 11.554688 L 48.542969 11.554688 L 48.542969 10.917969 L 49.207031 10.917969 Z M 50.605469 9.269531 C 50.628906 9.140625 50.648438 9.019531 50.671875 8.890625 C 50.6875 8.828125 50.730469 8.78125 50.792969 8.753906 C 50.851562 8.730469 50.914062 8.730469 50.972656 8.761719 C 51.074219 8.832031 51.175781 8.90625 51.273438 8.976562 C 51.417969 9.074219 51.464844 9.074219 51.585938 8.957031 C 51.683594 8.863281 51.777344 8.765625 51.875 8.667969 C 51.917969 8.636719 51.945312 8.59375 51.949219 8.539062 C 51.953125 8.484375 51.9375 8.4375 51.902344 8.394531 C 51.824219 8.289062 51.746094 8.183594 51.671875 8.074219 C 51.640625 8.011719 51.636719 7.949219 51.667969 7.886719 C 51.695312 7.824219 51.742188 7.785156 51.808594 7.765625 C 51.9375 7.746094 52.066406 7.71875 52.199219 7.699219 C 52.324219 7.699219 52.378906 7.632812 52.367188 7.511719 C 52.363281 7.359375 52.367188 7.207031 52.371094 7.054688 C 52.382812 6.925781 52.328125 6.859375 52.195312 6.851562 C 52.066406 6.832031 51.9375 6.808594 51.808594 6.785156 C 51.742188 6.765625 51.699219 6.722656 51.675781 6.664062 C 51.648438 6.601562 51.648438 6.539062 51.679688 6.480469 C 51.753906 6.371094 51.828125 6.261719 51.910156 6.160156 C 51.945312 6.121094 51.960938 6.074219 51.960938 6.019531 C 51.953125 5.96875 51.929688 5.921875 51.886719 5.886719 C 51.539062 5.53125 51.503906 5.519531 51.46875 5.519531 C 51.351562 5.535156 51.25 5.578125 51.160156 5.660156 C 51.070312 5.722656 51.050781 5.734375 51 5.773438 C 50.9375 5.8125 50.875 5.816406 50.808594 5.789062 C 50.742188 5.761719 50.699219 5.710938 50.683594 5.640625 C 50.664062 5.515625 50.644531 5.386719 50.625 5.265625 C 50.621094 5.132812 50.554688 5.074219 50.425781 5.089844 C 50.28125 5.089844 50.136719 5.089844 49.992188 5.089844 C 49.84375 5.089844 49.796875 5.132812 49.769531 5.28125 C 49.75 5.402344 49.730469 5.523438 49.707031 5.644531 C 49.683594 5.707031 49.640625 5.75 49.582031 5.777344 C 49.519531 5.800781 49.460938 5.800781 49.398438 5.773438 C 49.296875 5.703125 49.199219 5.625 49.097656 5.554688 C 48.964844 5.460938 48.914062 5.464844 48.796875 5.574219 C 48.695312 5.671875 48.597656 5.773438 48.5 5.867188 C 48.398438 5.949219 48.390625 6.035156 48.472656 6.132812 C 48.546875 6.242188 48.625 6.351562 48.695312 6.460938 C 48.730469 6.523438 48.730469 6.589844 48.699219 6.652344 C 48.667969 6.71875 48.617188 6.757812 48.546875 6.773438 C 48.421875 6.792969 48.296875 6.8125 48.171875 6.832031 C 48.046875 6.839844 47.992188 6.902344 48.007812 7.027344 C 48.011719 7.175781 48.007812 7.324219 48.003906 7.472656 C 47.988281 7.605469 48.046875 7.675781 48.183594 7.683594 C 48.308594 7.703125 48.433594 7.722656 48.558594 7.753906 C 48.609375 7.773438 48.648438 7.804688 48.675781 7.851562 C 48.753906 7.953125 48.742188 8.042969 48.644531 8.125 C 48.570312 8.207031 48.511719 8.304688 48.449219 8.394531 C 48.375 8.476562 48.378906 8.554688 48.460938 8.625 C 48.566406 8.734375 48.671875 8.839844 48.773438 8.945312 C 48.804688 8.996094 48.851562 9.023438 48.914062 9.03125 C 48.972656 9.035156 49.023438 9.015625 49.066406 8.972656 C 49.171875 8.902344 49.273438 8.828125 49.378906 8.757812 C 49.441406 8.726562 49.503906 8.726562 49.566406 8.753906 C 49.628906 8.78125 49.671875 8.828125 49.691406 8.890625 C 49.714844 9.027344 49.738281 9.160156 49.761719 9.292969 C 49.769531 9.410156 49.832031 9.460938 49.949219 9.449219 C 50.097656 9.449219 50.253906 9.453125 50.402344 9.449219 C 50.535156 9.449219 50.582031 9.402344 50.605469 9.269531 Z M 50.285156 9.113281 L 50.074219 9.113281 C 50.050781 8.976562 50.019531 8.835938 50 8.695312 C 49.992188 8.59375 49.9375 8.535156 49.839844 8.511719 C 49.742188 8.480469 49.648438 8.441406 49.558594 8.394531 C 49.464844 8.332031 49.371094 8.339844 49.285156 8.410156 C 49.179688 8.488281 49.070312 8.558594 48.957031 8.640625 C 48.910156 8.578125 48.867188 8.523438 48.816406 8.460938 C 48.878906 8.375 48.953125 8.261719 49.035156 8.15625 C 49.109375 8.074219 49.117188 7.988281 49.058594 7.894531 C 49.007812 7.800781 48.96875 7.703125 48.9375 7.601562 C 48.914062 7.503906 48.855469 7.449219 48.753906 7.441406 C 48.617188 7.421875 48.484375 7.390625 48.34375 7.363281 L 48.34375 7.148438 C 48.476562 7.128906 48.609375 7.101562 48.742188 7.085938 C 48.851562 7.078125 48.917969 7.023438 48.941406 6.914062 C 48.972656 6.8125 49.015625 6.714844 49.066406 6.621094 C 49.117188 6.539062 49.113281 6.457031 49.054688 6.378906 C 49 6.300781 48.953125 6.21875 48.890625 6.148438 C 48.824219 6.0625 48.820312 6 48.914062 5.9375 C 48.933594 5.917969 48.953125 5.902344 48.972656 5.882812 C 49.082031 5.960938 49.195312 6.035156 49.300781 6.121094 C 49.386719 6.191406 49.472656 6.195312 49.5625 6.136719 C 49.652344 6.085938 49.75 6.046875 49.847656 6.019531 C 49.953125 6 50.007812 5.9375 50.015625 5.832031 C 50.039062 5.699219 50.066406 5.566406 50.09375 5.425781 L 50.308594 5.425781 C 50.332031 5.570312 50.359375 5.710938 50.378906 5.855469 C 50.390625 5.941406 50.4375 6 50.523438 6.019531 C 50.628906 6.054688 50.730469 6.097656 50.828125 6.148438 C 50.917969 6.207031 51.007812 6.199219 51.089844 6.128906 C 51.195312 6.050781 51.304688 5.976562 51.425781 5.890625 C 51.472656 5.949219 51.515625 6.003906 51.5625 6.0625 C 51.492188 6.160156 51.417969 6.273438 51.335938 6.378906 C 51.261719 6.464844 51.253906 6.558594 51.320312 6.652344 C 51.367188 6.746094 51.40625 6.839844 51.433594 6.9375 C 51.453125 7.035156 51.515625 7.089844 51.613281 7.097656 C 51.75 7.117188 51.886719 7.144531 52.03125 7.171875 L 52.03125 7.382812 C 51.898438 7.40625 51.761719 7.4375 51.625 7.453125 C 51.515625 7.460938 51.449219 7.519531 51.425781 7.625 C 51.398438 7.71875 51.359375 7.8125 51.3125 7.898438 C 51.246094 7.992188 51.253906 8.085938 51.328125 8.171875 C 51.40625 8.277344 51.480469 8.386719 51.566406 8.511719 C 51.511719 8.554688 51.457031 8.597656 51.394531 8.644531 C 51.292969 8.574219 51.175781 8.496094 51.066406 8.414062 C 50.988281 8.347656 50.902344 8.339844 50.816406 8.394531 C 50.71875 8.445312 50.621094 8.484375 50.519531 8.515625 C 50.421875 8.535156 50.367188 8.597656 50.359375 8.695312 C 50.339844 8.832031 50.3125 8.96875 50.285156 9.113281 Z M 51.0625 7.289062 C 51.066406 7.042969 50.980469 6.832031 50.808594 6.660156 C 50.636719 6.484375 50.425781 6.394531 50.183594 6.394531 L 50.175781 6.394531 C 49.933594 6.398438 49.730469 6.484375 49.558594 6.652344 C 49.386719 6.824219 49.300781 7.027344 49.300781 7.269531 C 49.296875 7.511719 49.378906 7.71875 49.546875 7.890625 C 49.714844 8.066406 49.917969 8.15625 50.160156 8.160156 L 50.179688 8.160156 C 50.421875 8.160156 50.628906 8.078125 50.800781 7.90625 C 50.972656 7.738281 51.058594 7.53125 51.0625 7.289062 Z M 50.164062 7.742188 C 50.039062 7.738281 49.933594 7.691406 49.847656 7.601562 C 49.757812 7.511719 49.714844 7.40625 49.714844 7.28125 C 49.714844 7.148438 49.761719 7.035156 49.855469 6.941406 C 49.957031 6.847656 50.074219 6.804688 50.207031 6.8125 C 50.335938 6.824219 50.441406 6.875 50.523438 6.96875 C 50.609375 7.0625 50.648438 7.175781 50.640625 7.300781 C 50.636719 7.425781 50.585938 7.535156 50.492188 7.621094 C 50.402344 7.707031 50.292969 7.746094 50.164062 7.746094 Z M 50.164062 7.742188 " fill-opacity="1" fill-rule="nonzero"/></g><g fill="#1976d2" fill-opacity="1"><g transform="translate(4.493602, 15.370265)"><g><path d="M 7.34375 -2.78125 C 7.34375 -1.863281 7.007812 -1.144531 6.34375 -0.625 C 5.675781 -0.113281 4.769531 0.140625 3.625 0.140625 C 2.382812 0.140625 1.429688 -0.0195312 0.765625 -0.34375 L 0.765625 -1.515625 C 1.191406 -1.328125 1.65625 -1.179688 2.15625 -1.078125 C 2.664062 -0.972656 3.171875 -0.921875 3.671875 -0.921875 C 4.484375 -0.921875 5.09375 -1.070312 5.5 -1.375 C 5.914062 -1.6875 6.125 -2.117188 6.125 -2.671875 C 6.125 -3.035156 6.050781 -3.332031 5.90625 -3.5625 C 5.757812 -3.789062 5.515625 -4.003906 5.171875 -4.203125 C 4.828125 -4.398438 4.304688 -4.625 3.609375 -4.875 C 2.640625 -5.21875 1.941406 -5.628906 1.515625 -6.109375 C 1.097656 -6.585938 0.890625 -7.210938 0.890625 -7.984375 C 0.890625 -8.785156 1.191406 -9.425781 1.796875 -9.90625 C 2.410156 -10.382812 3.21875 -10.625 4.21875 -10.625 C 5.257812 -10.625 6.210938 -10.429688 7.078125 -10.046875 L 6.703125 -8.984375 C 5.835938 -9.347656 5 -9.53125 4.1875 -9.53125 C 3.539062 -9.53125 3.035156 -9.390625 2.671875 -9.109375 C 2.304688 -8.835938 2.125 -8.457031 2.125 -7.96875 C 2.125 -7.601562 2.191406 -7.304688 2.328125 -7.078125 C 2.460938 -6.847656 2.6875 -6.632812 3 -6.4375 C 3.320312 -6.238281 3.8125 -6.023438 4.46875 -5.796875 C 5.5625 -5.398438 6.3125 -4.976562 6.71875 -4.53125 C 7.132812 -4.082031 7.34375 -3.5 7.34375 -2.78125 Z M 7.34375 -2.78125 "/></g></g></g><g fill="#1976d2" fill-opacity="1"><g transform="translate(12.541964, 15.370265)"><g><path d="M 5.921875 -9.53125 C 4.773438 -9.53125 3.867188 -9.144531 3.203125 -8.375 C 2.535156 -7.613281 2.203125 -6.566406 2.203125 -5.234375 C 2.203125 -3.867188 2.519531 -2.8125 3.15625 -2.0625 C 3.800781 -1.3125 4.71875 -0.9375 5.90625 -0.9375 C 6.632812 -0.9375 7.46875 -1.066406 8.40625 -1.328125 L 8.40625 -0.265625 C 7.6875 0.00390625 6.789062 0.140625 5.71875 0.140625 C 4.175781 0.140625 2.984375 -0.328125 2.140625 -1.265625 C 1.304688 -2.203125 0.890625 -3.53125 0.890625 -5.25 C 0.890625 -6.332031 1.09375 -7.28125 1.5 -8.09375 C 1.90625 -8.90625 2.488281 -9.53125 3.25 -9.96875 C 4.007812 -10.40625 4.90625 -10.625 5.9375 -10.625 C 7.039062 -10.625 8 -10.421875 8.8125 -10.015625 L 8.296875 -8.96875 C 7.503906 -9.34375 6.710938 -9.53125 5.921875 -9.53125 Z M 5.921875 -9.53125 "/></g></g></g><g fill="#1976d2" fill-opacity="1"><g transform="translate(21.793284, 15.370265)"><g><path d="M 9.390625 0 L 8.171875 0 L 8.171875 -4.921875 L 2.65625 -4.921875 L 2.65625 0 L 1.4375 0 L 1.4375 -10.46875 L 2.65625 -10.46875 L 2.65625 -6.015625 L 8.171875 -6.015625 L 8.171875 -10.46875 L 9.390625 -10.46875 Z M 9.390625 0 "/></g></g></g><g fill="#1976d2" fill-opacity="1"><g transform="translate(32.612746, 15.370265)"><g><path d="M 10.53125 -5.25 C 10.53125 -3.570312 10.101562 -2.253906 9.25 -1.296875 C 8.40625 -0.335938 7.226562 0.140625 5.71875 0.140625 C 4.175781 0.140625 2.984375 -0.328125 2.140625 -1.265625 C 1.304688 -2.210938 0.890625 -3.546875 0.890625 -5.265625 C 0.890625 -6.972656 1.3125 -8.296875 2.15625 -9.234375 C 3 -10.171875 4.191406 -10.640625 5.734375 -10.640625 C 7.242188 -10.640625 8.421875 -10.160156 9.265625 -9.203125 C 10.109375 -8.242188 10.53125 -6.925781 10.53125 -5.25 Z M 2.1875 -5.25 C 2.1875 -3.832031 2.488281 -2.753906 3.09375 -2.015625 C 3.695312 -1.285156 4.570312 -0.921875 5.71875 -0.921875 C 6.882812 -0.921875 7.757812 -1.285156 8.34375 -2.015625 C 8.9375 -2.742188 9.234375 -3.820312 9.234375 -5.25 C 9.234375 -6.65625 8.9375 -7.722656 8.34375 -8.453125 C 7.757812 -9.179688 6.890625 -9.546875 5.734375 -9.546875 C 4.578125 -9.546875 3.695312 -9.175781 3.09375 -8.4375 C 2.488281 -7.707031 2.1875 -6.644531 2.1875 -5.25 Z M 2.1875 -5.25 "/></g></g></g><g fill="#ffffff" fill-opacity="1"><g transform="translate(29.028326, 31.539471)"><g><path d="M 6.09375 0 L 2.53125 -9.296875 L 2.46875 -9.296875 C 2.53125 -8.566406 2.5625 -7.691406 2.5625 -6.671875 L 2.5625 0 L 1.4375 0 L 1.4375 -10.5 L 3.28125 -10.5 L 6.609375 -1.84375 L 6.65625 -1.84375 L 10.015625 -10.5 L 11.84375 -10.5 L 11.84375 0 L 10.625 0 L 10.625 -6.765625 C 10.625 -7.535156 10.65625 -8.378906 10.71875 -9.296875 L 10.65625 -9.296875 L 7.078125 0 Z M 6.09375 0 "/></g></g></g><g fill="#ffffff" fill-opacity="1"><g transform="translate(42.298653, 31.539471)"><g><path d="M 7.296875 0 L 1.4375 0 L 1.4375 -10.5 L 7.296875 -10.5 L 7.296875 -9.40625 L 2.65625 -9.40625 L 2.65625 -6.03125 L 7.015625 -6.03125 L 7.015625 -4.953125 L 2.65625 -4.953125 L 2.65625 -1.09375 L 7.296875 -1.09375 Z M 7.296875 0 "/></g></g></g><g fill="#ffffff" fill-opacity="1"><g transform="translate(50.473292, 31.539471)"><g><path d="M 9.640625 0 L 8.25 0 L 2.515625 -8.8125 L 2.453125 -8.8125 C 2.523438 -7.78125 2.5625 -6.832031 2.5625 -5.96875 L 2.5625 0 L 1.4375 0 L 1.4375 -10.5 L 2.828125 -10.5 L 8.546875 -1.71875 L 8.59375 -1.71875 C 8.59375 -1.851562 8.570312 -2.269531 8.53125 -2.96875 C 8.5 -3.664062 8.488281 -4.164062 8.5 -4.46875 L 8.5 -10.5 L 9.640625 -10.5 Z M 9.640625 0 "/></g></g></g><g fill="#ffffff" fill-opacity="1"><g transform="translate(61.554621, 31.539471)"><g><path d="M 4.671875 0 L 3.453125 0 L 3.453125 -9.40625 L 0.125 -9.40625 L 0.125 -10.5 L 8 -10.5 L 8 -9.40625 L 4.671875 -9.40625 Z M 4.671875 0 "/></g></g></g></svg>