<svg xmlns="http://www.w3.org/2000/svg" xmlns:xlink="http://www.w3.org/1999/xlink" width="500" zoomAndPan="magnify" viewBox="0 0 375 374.999991" height="500" preserveAspectRatio="xMidYMid meet" version="1.0"><defs><clipPath id="e4ab7aa48e"><path d="M 16 14.035156 L 359 14.035156 L 359 352.285156 L 16 352.285156 Z M 16 14.035156 " clip-rule="nonzero"/></clipPath></defs><g clip-path="url(#e4ab7aa48e)"><path fill="#03a9f4" d="M 194.734375 86.605469 L 34.09375 86.605469 C 29.378906 86.605469 24.855469 88.523438 21.519531 91.949219 C 18.246094 95.320312 16.394531 99.886719 16.394531 104.652344 C 16.394531 118.457031 16.394531 130.765625 16.394531 157.40625 C 16.394531 160.660156 19.039062 163.304688 22.292969 163.304688 C 25.550781 163.304688 28.195312 160.660156 28.195312 157.40625 L 28.195312 104.652344 C 28.195312 102.972656 28.832031 101.359375 29.980469 100.175781 C 31.074219 99.046875 32.546875 98.40625 34.09375 98.40625 L 198.371094 98.40625 C 207.574219 120.070312 229.054688 135.28125 254.0625 135.28125 C 279.066406 135.28125 300.546875 120.070312 309.75 98.40625 C 309.808594 98.40625 341.039062 98.40625 341.039062 98.40625 C 342.53125 98.445312 343.953125 99.082031 345.011719 100.175781 C 346.160156 101.359375 346.796875 102.972656 346.796875 104.652344 L 346.796875 257.707031 L 323.199219 257.707031 C 319.941406 257.707031 317.296875 260.351562 317.296875 263.605469 C 317.296875 266.863281 319.941406 269.507812 323.199219 269.507812 L 346.796875 269.507812 L 346.796875 286.859375 C 346.796875 288.539062 346.160156 290.152344 345.011719 291.335938 C 343.917969 292.464844 342.445312 293.105469 340.898438 293.105469 C 340.898438 293.105469 34.09375 293.105469 34.09375 293.105469 C 32.546875 293.105469 31.074219 292.464844 29.980469 291.335938 C 28.832031 290.152344 28.195312 288.539062 28.195312 286.859375 L 28.195312 269.507812 L 299.597656 269.507812 C 302.855469 269.507812 305.496094 266.863281 305.496094 263.605469 C 305.496094 260.351562 302.855469 257.707031 299.597656 257.707031 L 28.195312 257.707031 L 28.195312 204.605469 C 28.195312 201.347656 25.550781 198.707031 22.292969 198.707031 C 19.039062 198.707031 16.394531 201.347656 16.394531 204.605469 L 16.394531 286.859375 C 16.394531 291.625 18.246094 296.191406 21.515625 299.5625 C 24.855469 302.988281 29.378906 304.90625 34.09375 304.90625 L 152.09375 304.90625 L 152.09375 340.308594 L 140.296875 340.308594 C 137.039062 340.308594 134.394531 342.949219 134.394531 346.207031 C 134.394531 349.464844 137.039062 352.109375 140.296875 352.109375 L 234.695312 352.109375 C 237.953125 352.109375 240.597656 349.464844 240.597656 346.207031 C 240.597656 342.949219 237.953125 340.308594 234.695312 340.308594 L 222.898438 340.308594 L 222.898438 304.90625 L 340.898438 304.90625 C 345.613281 304.90625 350.136719 302.988281 353.476562 299.5625 C 356.746094 296.191406 358.597656 291.625 358.597656 286.859375 C 358.597656 250.25 358.597656 141.261719 358.597656 104.652344 C 358.597656 99.886719 356.746094 95.320312 353.472656 91.949219 C 350.242188 88.628906 345.894531 86.726562 341.339844 86.609375 L 313.378906 86.605469 C 314.140625 82.785156 314.535156 78.847656 314.535156 74.804688 C 314.535156 70.363281 314.050781 66.023438 313.144531 61.855469 L 333.628906 41.367188 C 335.929688 39.0625 335.929688 35.328125 333.628906 33.027344 L 316.9375 16.335938 C 314.636719 14.035156 310.902344 14.035156 308.59375 16.335938 L 294.792969 30.132812 C 294.707031 30.039062 294.613281 29.953125 294.515625 29.863281 C 283.796875 20.210938 269.609375 14.328125 254.0625 14.328125 C 220.683594 14.328125 193.585938 41.425781 193.585938 74.804688 C 193.585938 78.847656 193.980469 82.785156 194.734375 86.605469 Z M 211.097656 304.90625 L 211.097656 340.308594 C 211.097656 340.308594 163.894531 340.308594 163.894531 340.308594 C 163.894531 340.308594 163.894531 304.90625 163.894531 304.90625 Z M 45.894531 287.207031 L 51.792969 287.207031 C 55.050781 287.207031 57.695312 284.5625 57.695312 281.308594 C 57.695312 278.050781 55.050781 275.40625 51.792969 275.40625 L 45.894531 275.40625 C 42.636719 275.40625 39.996094 278.050781 39.996094 281.308594 C 39.996094 284.5625 42.636719 287.207031 45.894531 287.207031 Z M 143.246094 245.90625 L 157.996094 245.90625 C 162.691406 245.90625 167.195312 244.042969 170.511719 240.71875 C 173.832031 237.402344 175.695312 232.902344 175.695312 228.207031 C 175.695312 219.992188 175.695312 210.507812 175.695312 210.507812 C 175.695312 207.25 173.050781 204.605469 169.796875 204.605469 C 166.539062 204.605469 163.894531 207.25 163.894531 210.507812 C 163.894531 210.507812 163.894531 219.992188 163.894531 228.207031 C 163.894531 229.769531 163.277344 231.273438 162.167969 232.378906 C 161.0625 233.488281 159.558594 234.105469 157.996094 234.105469 L 143.246094 234.105469 C 139.988281 234.105469 137.34375 236.75 137.34375 240.007812 C 137.34375 243.261719 139.988281 245.90625 143.246094 245.90625 Z M 72.445312 234.105469 L 57.695312 234.105469 C 56.132812 234.105469 54.625 233.488281 53.523438 232.378906 C 52.414062 231.273438 51.792969 229.769531 51.792969 228.207031 L 51.792969 210.507812 C 51.792969 207.25 49.152344 204.605469 45.894531 204.605469 C 42.636719 204.605469 39.996094 207.25 39.996094 210.507812 C 39.996094 210.507812 39.996094 219.992188 39.996094 228.207031 C 39.996094 232.902344 41.859375 237.402344 45.179688 240.71875 C 48.496094 244.042969 52.996094 245.90625 57.695312 245.90625 L 72.445312 245.90625 C 75.703125 245.90625 78.34375 243.261719 78.34375 240.007812 C 78.34375 236.75 75.703125 234.105469 72.445312 234.105469 Z M 208.335938 234.105469 L 299.785156 234.105469 C 303.042969 234.105469 305.6875 231.464844 305.6875 228.207031 C 305.6875 224.949219 303.042969 222.304688 299.785156 222.304688 L 208.335938 222.304688 C 205.078125 222.304688 202.433594 224.949219 202.433594 228.207031 C 202.433594 231.464844 205.078125 234.105469 208.335938 234.105469 Z M 90.546875 182.828125 C 74.6875 189.371094 63.59375 204.625 63.59375 222.304688 C 63.59375 225.5625 66.238281 228.207031 69.496094 228.207031 L 146.195312 228.207031 C 149.453125 228.207031 152.09375 225.5625 152.09375 222.304688 C 152.09375 204.625 141.003906 189.371094 125.144531 182.828125 C 132.9375 177.371094 138.035156 168.320312 138.035156 158.09375 C 138.035156 141.433594 124.507812 127.90625 107.84375 127.90625 C 91.183594 127.90625 77.65625 141.433594 77.65625 158.09375 C 77.65625 168.320312 82.753906 177.371094 90.546875 182.828125 Z M 75.980469 216.40625 C 78.863281 202.035156 92.085938 191.222656 107.84375 191.222656 C 123.605469 191.222656 136.828125 202.035156 139.710938 216.40625 Z M 208.335938 198.707031 L 299.785156 198.707031 C 303.042969 198.707031 305.6875 196.0625 305.6875 192.804688 C 305.6875 189.546875 303.042969 186.90625 299.785156 186.90625 L 208.335938 186.90625 C 205.078125 186.90625 202.433594 189.546875 202.433594 192.804688 C 202.433594 196.0625 205.078125 198.707031 208.335938 198.707031 Z M 16.394531 175.105469 L 16.394531 186.90625 C 16.394531 190.164062 19.039062 192.804688 22.292969 192.804688 C 25.550781 192.804688 28.195312 190.164062 28.195312 186.90625 L 28.195312 175.105469 C 28.195312 171.847656 25.550781 169.207031 22.292969 169.207031 C 19.039062 169.207031 16.394531 171.847656 16.394531 175.105469 Z M 107.84375 139.703125 C 117.992188 139.703125 126.234375 147.949219 126.234375 158.09375 C 126.234375 168.242188 117.992188 176.480469 107.84375 176.480469 C 97.695312 176.480469 89.453125 168.242188 89.453125 158.09375 C 89.453125 147.949219 97.695312 139.703125 107.84375 139.703125 Z M 208.335938 163.304688 L 299.785156 163.304688 C 303.042969 163.304688 305.6875 160.660156 305.6875 157.40625 C 305.6875 154.148438 303.042969 151.503906 299.785156 151.503906 L 208.335938 151.503906 C 205.078125 151.503906 202.433594 154.148438 202.433594 157.40625 C 202.433594 160.660156 205.078125 163.304688 208.335938 163.304688 Z M 72.445312 110.203125 L 57.695312 110.203125 C 52.996094 110.203125 48.496094 112.070312 45.179688 115.390625 C 41.859375 118.707031 39.996094 123.207031 39.996094 127.90625 C 39.996094 136.117188 39.996094 145.605469 39.996094 145.605469 C 39.996094 148.863281 42.636719 151.503906 45.894531 151.503906 C 49.152344 151.503906 51.792969 148.863281 51.792969 145.605469 C 51.792969 145.605469 51.792969 136.117188 51.792969 127.90625 C 51.792969 126.339844 52.414062 124.835938 53.523438 123.734375 C 54.625 122.625 56.132812 122.003906 57.695312 122.003906 L 72.445312 122.003906 C 75.703125 122.003906 78.34375 119.363281 78.34375 116.105469 C 78.34375 112.847656 75.703125 110.203125 72.445312 110.203125 Z M 143.246094 122.003906 L 157.996094 122.003906 C 159.558594 122.003906 161.0625 122.625 162.167969 123.734375 C 163.277344 124.835938 163.894531 126.339844 163.894531 127.90625 L 163.894531 145.605469 C 163.894531 148.863281 166.539062 151.503906 169.796875 151.503906 C 173.050781 151.503906 175.695312 148.863281 175.695312 145.605469 C 175.695312 145.605469 175.695312 136.117188 175.695312 127.90625 C 175.695312 123.207031 173.832031 118.707031 170.511719 115.390625 C 167.195312 112.070312 162.691406 110.203125 157.996094 110.203125 L 143.246094 110.203125 C 139.988281 110.203125 137.34375 112.847656 137.34375 116.105469 C 137.34375 119.363281 139.988281 122.003906 143.246094 122.003906 Z M 286.445312 38.484375 C 277.84375 30.800781 266.492188 26.128906 254.0625 26.128906 C 227.199219 26.128906 205.386719 47.941406 205.386719 74.804688 C 205.386719 101.667969 227.199219 123.480469 254.0625 123.480469 C 280.921875 123.480469 302.738281 101.667969 302.738281 74.804688 C 302.738281 73.972656 302.710938 73.144531 302.671875 72.320312 L 263.566406 111.425781 C 261.265625 113.734375 257.53125 113.734375 255.222656 111.425781 L 239.179688 95.382812 C 238.957031 95.21875 238.742188 95.03125 238.539062 94.824219 L 215.773438 72.066406 C 213.46875 69.757812 213.46875 66.023438 215.773438 63.71875 L 232.460938 47.03125 C 234.765625 44.726562 238.503906 44.726562 240.808594 47.03125 L 259.351562 65.578125 Z M 264.125 77.488281 C 263.960938 77.714844 263.773438 77.929688 263.566406 78.136719 L 251.09375 90.609375 L 259.394531 98.910156 L 321.109375 37.195312 L 312.765625 28.847656 Z M 251.011719 73.917969 L 242.660156 82.269531 L 228.289062 67.890625 C 228.289062 67.890625 236.632812 59.546875 236.632812 59.546875 Z M 251.011719 73.917969 " fill-opacity="1" fill-rule="evenodd"/></g></svg>