<svg xmlns="http://www.w3.org/2000/svg" xmlns:xlink="http://www.w3.org/1999/xlink" width="500" zoomAndPan="magnify" viewBox="0 0 375 374.999991" height="500" preserveAspectRatio="xMidYMid meet" version="1.0"><defs><clipPath id="9dde9c393a"><path d="M 18.171875 0 L 290 0 L 290 352 L 18.171875 352 Z M 18.171875 0 " clip-rule="nonzero"/></clipPath><clipPath id="c3796ffff8"><path d="M 353 199 L 369.171875 199 L 369.171875 336 L 353 336 Z M 353 199 " clip-rule="nonzero"/></clipPath></defs><path fill="#a7c7fc" d="M 313.398438 367.019531 L 58.082031 367.019531 C 58.082031 362.519531 58.082031 44.269531 58.082031 39.894531 C 66.046875 39.894531 300.082031 39.894531 313.398438 39.894531 C 313.398438 39.894531 313.398438 356.269531 313.398438 367.019531 Z M 313.398438 367.019531 " fill-opacity="1" fill-rule="nonzero"/><path fill="#ffffff" d="M 89.996094 199.46875 L 281.484375 199.46875 L 281.484375 231.382812 L 89.996094 231.382812 Z M 89.996094 199.46875 " fill-opacity="1" fill-rule="nonzero"/><path fill="#ffffff" d="M 281.484375 7.980469 L 281.484375 39.894531 L 58.082031 39.894531 L 58.082031 343.085938 L 26.164062 343.085938 L 26.164062 7.980469 Z M 281.484375 7.980469 " fill-opacity="1" fill-rule="nonzero"/><path fill="#ffffff" d="M 233.613281 167.554688 L 137.867188 167.554688 C 137.867188 146.449219 151.535156 128.546875 170.492188 122.179688 C 174.632812 125.601562 179.949219 127.660156 185.738281 127.660156 C 191.53125 127.660156 196.847656 125.601562 200.988281 122.179688 C 219.945312 128.546875 233.613281 146.449219 233.613281 167.554688 Z M 233.613281 167.554688 " fill-opacity="1" fill-rule="nonzero"/><path fill="#ffffff" d="M 185.738281 79.789062 C 198.960938 79.789062 209.675781 90.503906 209.675781 103.722656 C 209.675781 111.152344 206.292969 117.78125 200.988281 122.179688 C 196.847656 125.601562 191.53125 127.660156 185.738281 127.660156 C 179.949219 127.660156 174.632812 125.601562 170.492188 122.179688 C 165.1875 117.78125 161.804688 111.152344 161.804688 103.722656 C 161.804688 90.503906 172.519531 79.789062 185.738281 79.789062 Z M 185.738281 79.789062 " fill-opacity="1" fill-rule="nonzero"/><path fill="#03a9f4" d="M 337.335938 255.320312 C 341.738281 255.320312 345.3125 258.894531 345.3125 263.296875 C 345.3125 267.703125 341.738281 271.277344 337.335938 271.277344 C 332.929688 271.277344 329.355469 267.703125 329.355469 263.296875 C 329.355469 258.894531 332.929688 255.320312 337.335938 255.320312 Z M 337.335938 255.320312 " fill-opacity="1" fill-rule="nonzero"/><path fill="#03a9f4" d="M 241.589844 71.808594 C 245.996094 71.808594 249.570312 75.382812 249.570312 79.789062 C 249.570312 84.191406 245.996094 87.765625 241.589844 87.765625 C 237.1875 87.765625 233.613281 84.191406 233.613281 79.789062 C 233.613281 75.382812 237.1875 71.808594 241.589844 71.808594 Z M 241.589844 71.808594 " fill-opacity="1" fill-rule="nonzero"/><path fill="#03a9f4" d="M 225.632812 279.253906 C 230.039062 279.253906 233.613281 282.828125 233.613281 287.234375 C 233.613281 291.636719 230.039062 295.210938 225.632812 295.210938 C 221.230469 295.210938 217.65625 291.636719 217.65625 287.234375 C 217.65625 282.828125 221.230469 279.253906 225.632812 279.253906 Z M 225.632812 279.253906 " fill-opacity="1" fill-rule="nonzero"/><path fill="#03a9f4" d="M 113.929688 103.722656 C 118.335938 103.722656 121.910156 107.296875 121.910156 111.703125 C 121.910156 116.105469 118.335938 119.679688 113.929688 119.679688 C 109.527344 119.679688 105.953125 116.105469 105.953125 111.703125 C 105.953125 107.296875 109.527344 103.722656 113.929688 103.722656 Z M 113.929688 103.722656 " fill-opacity="1" fill-rule="nonzero"/><path fill="#03a9f4" d="M 233.613281 175.53125 L 137.867188 175.53125 C 133.460938 175.53125 129.890625 171.960938 129.890625 167.554688 C 129.890625 143.535156 145.1875 122.261719 167.953125 114.613281 C 172.128906 113.207031 176.652344 115.460938 178.054688 119.636719 C 179.460938 123.816406 177.210938 128.339844 173.03125 129.742188 C 159.347656 134.335938 149.445312 145.824219 146.648438 159.574219 L 224.832031 159.574219 C 222.035156 145.828125 212.132812 134.335938 198.449219 129.742188 C 194.273438 128.339844 192.023438 123.816406 193.425781 119.636719 C 194.828125 115.460938 199.351562 113.210938 203.527344 114.613281 C 226.292969 122.261719 241.589844 143.535156 241.589844 167.554688 C 241.589844 171.960938 238.019531 175.53125 233.613281 175.53125 Z M 233.613281 175.53125 " fill-opacity="1" fill-rule="nonzero"/><path fill="#03a9f4" d="M 185.738281 135.636719 C 178.332031 135.636719 171.113281 133.042969 165.410156 128.328125 C 158.046875 122.226562 153.824219 113.261719 153.824219 103.722656 C 153.824219 86.125 168.140625 71.808594 185.738281 71.808594 C 203.335938 71.808594 217.65625 86.125 217.65625 103.722656 C 217.65625 113.261719 213.4375 122.226562 206.078125 128.320312 C 200.367188 133.042969 193.148438 135.636719 185.738281 135.636719 Z M 185.738281 87.765625 C 176.941406 87.765625 169.78125 94.925781 169.78125 103.722656 C 169.78125 108.492188 171.898438 112.980469 175.582031 116.035156 C 178.464844 118.417969 181.980469 119.679688 185.738281 119.679688 C 189.5 119.679688 193.011719 118.417969 195.902344 116.027344 C 199.582031 112.980469 201.699219 108.492188 201.699219 103.722656 C 201.699219 94.925781 194.539062 87.765625 185.738281 87.765625 Z M 185.738281 87.765625 " fill-opacity="1" fill-rule="nonzero"/><path fill="#03a9f4" d="M 313.398438 375 L 58.082031 375 C 53.671875 375 50.101562 371.425781 50.101562 367.019531 L 50.101562 39.894531 C 50.101562 35.488281 53.671875 31.914062 58.082031 31.914062 L 313.398438 31.914062 C 317.804688 31.914062 321.378906 35.488281 321.378906 39.894531 L 321.378906 367.019531 C 321.378906 371.425781 317.804688 375 313.398438 375 Z M 66.058594 359.042969 L 305.421875 359.042969 L 305.421875 47.871094 L 66.058594 47.871094 Z M 66.058594 359.042969 " fill-opacity="1" fill-rule="nonzero"/><g clip-path="url(#9dde9c393a)"><path fill="#03a9f4" d="M 58.082031 351.0625 L 26.164062 351.0625 C 21.757812 351.0625 18.1875 347.492188 18.1875 343.085938 L 18.1875 7.980469 C 18.1875 3.570312 21.757812 0 26.164062 0 L 281.484375 0 C 285.890625 0 289.464844 3.570312 289.464844 7.980469 L 289.464844 39.894531 C 289.464844 44.300781 285.890625 47.871094 281.484375 47.871094 C 277.078125 47.871094 273.507812 44.300781 273.507812 39.894531 L 273.507812 15.957031 L 34.144531 15.957031 L 34.144531 335.105469 L 58.082031 335.105469 C 62.488281 335.105469 66.058594 338.679688 66.058594 343.085938 C 66.058594 347.492188 62.488281 351.0625 58.082031 351.0625 Z M 58.082031 351.0625 " fill-opacity="1" fill-rule="nonzero"/></g><path fill="#03a9f4" d="M 337.335938 247.339844 C 332.929688 247.339844 329.355469 243.765625 329.355469 239.363281 L 329.355469 63.828125 C 329.355469 59.421875 332.929688 55.851562 337.335938 55.851562 C 341.742188 55.851562 345.3125 59.421875 345.3125 63.828125 L 345.3125 239.363281 C 345.3125 243.765625 341.742188 247.339844 337.335938 247.339844 Z M 337.335938 247.339844 " fill-opacity="1" fill-rule="nonzero"/><g clip-path="url(#c3796ffff8)"><path fill="#03a9f4" d="M 361.273438 335.105469 C 356.867188 335.105469 353.292969 331.535156 353.292969 327.128906 L 353.292969 207.445312 C 353.292969 203.039062 356.867188 199.46875 361.273438 199.46875 C 365.675781 199.46875 369.25 203.039062 369.25 207.445312 L 369.25 327.128906 C 369.25 331.535156 365.675781 335.105469 361.273438 335.105469 Z M 361.273438 335.105469 " fill-opacity="1" fill-rule="nonzero"/></g><path fill="#03a9f4" d="M 281.484375 239.363281 L 89.996094 239.363281 C 85.589844 239.363281 82.015625 235.789062 82.015625 231.382812 L 82.015625 199.46875 C 82.015625 195.0625 85.589844 191.488281 89.996094 191.488281 L 281.484375 191.488281 C 285.890625 191.488281 289.464844 195.0625 289.464844 199.46875 L 289.464844 231.382812 C 289.464844 235.789062 285.890625 239.363281 281.484375 239.363281 Z M 97.972656 223.402344 L 273.507812 223.402344 L 273.507812 207.445312 L 97.972656 207.445312 Z M 97.972656 223.402344 " fill-opacity="1" fill-rule="nonzero"/><path fill="#03a9f4" d="M 137.867188 271.277344 L 89.996094 271.277344 C 85.589844 271.277344 82.015625 267.703125 82.015625 263.296875 C 82.015625 258.890625 85.589844 255.320312 89.996094 255.320312 L 137.867188 255.320312 C 142.273438 255.320312 145.847656 258.890625 145.847656 263.296875 C 145.847656 267.703125 142.273438 271.277344 137.867188 271.277344 Z M 137.867188 271.277344 " fill-opacity="1" fill-rule="nonzero"/><path fill="#03a9f4" d="M 201.699219 295.210938 L 89.996094 295.210938 C 85.589844 295.210938 82.015625 291.640625 82.015625 287.234375 C 82.015625 282.828125 85.589844 279.253906 89.996094 279.253906 L 201.699219 279.253906 C 206.101562 279.253906 209.675781 282.828125 209.675781 287.234375 C 209.675781 291.640625 206.101562 295.210938 201.699219 295.210938 Z M 201.699219 295.210938 " fill-opacity="1" fill-rule="nonzero"/><path fill="#03a9f4" d="M 281.484375 319.148438 L 89.996094 319.148438 C 85.589844 319.148438 82.015625 315.574219 82.015625 311.171875 C 82.015625 306.765625 85.589844 303.191406 89.996094 303.191406 L 281.484375 303.191406 C 285.890625 303.191406 289.464844 306.765625 289.464844 311.171875 C 289.464844 315.574219 285.890625 319.148438 281.484375 319.148438 Z M 281.484375 319.148438 " fill-opacity="1" fill-rule="nonzero"/><path fill="#03a9f4" d="M 89.996094 119.679688 L 58.082031 119.679688 C 53.671875 119.679688 50.101562 116.109375 50.101562 111.703125 C 50.101562 107.296875 53.671875 103.722656 58.082031 103.722656 L 89.996094 103.722656 C 94.402344 103.722656 97.972656 107.296875 97.972656 111.703125 C 97.972656 116.109375 94.402344 119.679688 89.996094 119.679688 Z M 89.996094 119.679688 " fill-opacity="1" fill-rule="nonzero"/><path fill="#03a9f4" d="M 313.398438 87.765625 L 265.527344 87.765625 C 261.121094 87.765625 257.546875 84.195312 257.546875 79.789062 C 257.546875 75.378906 261.121094 71.808594 265.527344 71.808594 L 313.398438 71.808594 C 317.804688 71.808594 321.378906 75.378906 321.378906 79.789062 C 321.378906 84.195312 317.804688 87.765625 313.398438 87.765625 Z M 313.398438 87.765625 " fill-opacity="1" fill-rule="nonzero"/></svg>